<?xml version="1.0" encoding="UTF-8"?>
<svg version="1.1" xmlns="http://www.w3.org/2000/svg" width="98" height="98">
<path d="M0 0 C5.61618939 3.39271509 10.25408203 7.25704398 12.8125 13.375 C12.998125 14.220625 13.18375 15.06625 13.375 15.9375 C14.48875 15.834375 15.6025 15.73125 16.75 15.625 C22.34785319 15.625 26.75100354 17.93682144 31.375 20.9375 C33.875 23.5 33.875 23.5 35.375 25.9375 C35.72691406 26.50855469 36.07882813 27.07960938 36.44140625 27.66796875 C38.73517287 33.24402903 38.46000002 40.8132812 36.5 46.45703125 C35.24494301 48.61622469 34.16185726 50.18206001 32.375 51.9375 C31.53453125 52.7833667 30.6940625 53.6292334 29.828125 54.50073242 C23.7372986 58.76617652 15.47912245 57.69577011 8.34765625 57.671875 C6.67288088 57.68033309 4.99811111 57.68997566 3.323349 57.70074463 C-0.17942037 57.71710044 -3.68155726 57.71445948 -7.18432617 57.69921875 C-11.65815559 57.68193468 -16.12963818 57.719086 -20.60312557 57.77148056 C-24.05980135 57.80466882 -27.51591835 57.80514493 -30.97271919 57.79633331 C-32.6212607 57.79669164 -34.26983893 57.80788715 -35.91822624 57.83043671 C-50.36715338 58.00188154 -50.36715338 58.00188154 -55.57250977 53.63378906 C-60.85146193 48.06422775 -61.17947409 42.92675716 -61.0703125 35.43359375 C-60.41578591 30.29498584 -58.50242428 27.29381259 -54.625 23.9375 C-51.56738173 22.00308844 -49.60789965 20.98430475 -46 20.8125 C-43.50895679 20.19305907 -43.50895679 20.19305907 -42.671875 18.16015625 C-42.03449765 16.58021664 -41.39921551 14.99943077 -40.765625 13.41796875 C-37.68800406 6.72519718 -32.38054358 1.79434987 -25.6953125 -1.2109375 C-17.47027622 -3.49218166 -7.83453206 -3.60580145 0 0 Z M-30.0625 13.5 C-34.49050551 19.16431475 -36.20609962 23.84596051 -35.37890625 31.09375 C-33.89223552 37.93506664 -30.49099393 43.02683738 -24.625 46.9375 C-19.49005312 49.10457734 -14.9035635 49.22977864 -9.4296875 49.203125 C-8.55982208 49.20503845 -7.68995667 49.2069519 -6.79373169 49.20892334 C-4.96323353 49.21027907 -3.13272556 49.20662557 -1.30224609 49.19824219 C1.49794041 49.1875079 4.2974892 49.19817153 7.09765625 49.2109375 C8.88020975 49.2096163 10.66276285 49.20705474 12.4453125 49.203125 C13.2807962 49.20717346 14.11627991 49.21122192 14.9770813 49.21539307 C20.49488542 49.25862106 20.49488542 49.25862106 25.375 46.9375 C28.32111813 43.0358841 29.74570654 40.30492142 29.5625 35.375 C28.8065582 30.9602999 26.98205061 28.60573649 23.41015625 25.97265625 C19.74914557 24.1105299 17.44578717 24.28092142 13.375 24.9375 C10.40768602 26.77406989 10.40768602 26.77406989 8.375 28.9375 C5.9375 28.1875 5.9375 28.1875 3.375 26.9375 C2.375 25 2.375 25 2.375 22.9375 C3.8125 21.1875 3.8125 21.1875 5.375 19.9375 C3.65943564 14.47888613 0.48080787 11.37561269 -4.1875 8.1875 C-13.30718974 3.51073603 -23.41697918 5.84954677 -30.0625 13.5 Z M-51.625 33.9375 C-53.03500664 36.75751327 -52.87048451 38.80757255 -52.625 41.9375 C-50.90295731 45.72599393 -49.47549025 47.43255487 -45.625 48.9375 C-43.03345081 49.17779959 -43.03345081 49.17779959 -40.375 49.0625 C-39.03695312 49.03542969 -39.03695312 49.03542969 -37.671875 49.0078125 C-36.99640625 48.98460938 -36.3209375 48.96140625 -35.625 48.9375 C-36.13160156 48.04998047 -36.13160156 48.04998047 -36.6484375 47.14453125 C-40.07280703 41.07765692 -42.65238118 35.90793488 -43.625 28.9375 C-47.12740917 28.9375 -49.12354278 31.70215525 -51.625 33.9375 Z " fill="#5A28EA" transform="translate(60.625,19.0625)"/>
<path d="M0 0 C5.09139131 3.5074029 6.66369305 8.19687681 8 14 C8.4688385 17.00875972 8.75875619 19.96032799 9 23 C6.66006407 22.69479097 4.33188169 22.35970515 2 22 C1.16984375 21.87753906 0.3396875 21.75507812 -0.515625 21.62890625 C-5.68663478 20.75416957 -9.21842156 19.90356484 -13 16 C-14.60086627 12.79826746 -14.49917089 9.47422941 -14 6 C-10.36312834 0.3022344 -6.68712692 -1.09308805 0 0 Z M-8 7 C-8 8.65 -8 10.3 -8 12 C-6.02 12.99 -6.02 12.99 -4 14 C-2.68 12.68 -1.36 11.36 0 10 C-0.66 8.68 -1.32 7.36 -2 6 C-5.7763932 5.7018576 -5.7763932 5.7018576 -8 7 Z " fill="#5A28EA" transform="translate(51,37)"/>
</svg>
